<mxfile host="app.diagrams.net" modified="2023-06-09T14:24:26.965Z" agent="Mozilla/5.0 (Windows NT 10.0; Win64; x64) AppleWebKit/537.36 (KHTML, like Gecko) Chrome/113.0.0.0 Safari/537.36" etag="tFvNA0wPe-8xbEVj-aPv" version="21.3.7" type="device">
  <diagram name="Page-1" id="2YBvvXClWsGukQMizWep">
    <mxGraphModel dx="1489" dy="1726" grid="1" gridSize="10" guides="1" tooltips="1" connect="1" arrows="1" fold="1" page="1" pageScale="1" pageWidth="850" pageHeight="1100" math="0" shadow="0">
      <root>
        <mxCell id="0" />
        <mxCell id="1" parent="0" />
        <mxCell id="FpLYncGG0gf17gEkh9_b-1" value="" style="endArrow=none;dashed=1;html=1;rounded=0;fontSize=12;startSize=8;endSize=8;curved=1;" parent="1" edge="1">
          <mxGeometry width="50" height="50" relative="1" as="geometry">
            <mxPoint x="750" y="800" as="sourcePoint" />
            <mxPoint x="750" y="740" as="targetPoint" />
          </mxGeometry>
        </mxCell>
        <mxCell id="FpLYncGG0gf17gEkh9_b-2" value="" style="endArrow=none;dashed=1;html=1;rounded=0;fontSize=12;startSize=8;endSize=8;curved=1;exitX=0.5;exitY=0;exitDx=0;exitDy=0;" parent="1" edge="1">
          <mxGeometry width="50" height="50" relative="1" as="geometry">
            <mxPoint x="570" y="800" as="sourcePoint" />
            <mxPoint x="569.5699999999999" y="650" as="targetPoint" />
          </mxGeometry>
        </mxCell>
        <mxCell id="FpLYncGG0gf17gEkh9_b-4" value="" style="endArrow=none;dashed=1;html=1;rounded=0;fontSize=12;startSize=8;endSize=8;curved=1;exitX=0.5;exitY=0;exitDx=0;exitDy=0;" parent="1" edge="1">
          <mxGeometry width="50" height="50" relative="1" as="geometry">
            <mxPoint x="250" y="800" as="sourcePoint" />
            <mxPoint x="249.57999999999998" y="490" as="targetPoint" />
          </mxGeometry>
        </mxCell>
        <mxCell id="FpLYncGG0gf17gEkh9_b-5" value="" style="endArrow=none;dashed=1;html=1;rounded=0;fontSize=12;startSize=8;endSize=8;curved=1;" parent="1" edge="1">
          <mxGeometry width="50" height="50" relative="1" as="geometry">
            <mxPoint x="64.81" y="280" as="sourcePoint" />
            <mxPoint x="64.81" y="240" as="targetPoint" />
          </mxGeometry>
        </mxCell>
        <mxCell id="FpLYncGG0gf17gEkh9_b-6" value="Student" style="shape=umlActor;verticalLabelPosition=bottom;verticalAlign=top;html=1;fontSize=16;" parent="1" vertex="1">
          <mxGeometry x="55" y="175" width="25" height="35" as="geometry" />
        </mxCell>
        <mxCell id="FpLYncGG0gf17gEkh9_b-7" value="" style="html=1;points=[];perimeter=orthogonalPerimeter;outlineConnect=0;targetShapes=umlLifeline;portConstraint=eastwest;newEdgeStyle={&quot;edgeStyle&quot;:&quot;elbowEdgeStyle&quot;,&quot;elbow&quot;:&quot;vertical&quot;,&quot;curved&quot;:0,&quot;rounded&quot;:0};fontSize=16;" parent="1" vertex="1">
          <mxGeometry x="60" y="280" width="10" height="190" as="geometry" />
        </mxCell>
        <mxCell id="FpLYncGG0gf17gEkh9_b-8" value="" style="endArrow=none;dashed=1;html=1;rounded=0;fontSize=12;startSize=8;endSize=8;exitX=0.377;exitY=0.012;exitDx=0;exitDy=0;exitPerimeter=0;" parent="1" edge="1">
          <mxGeometry width="50" height="50" relative="1" as="geometry">
            <mxPoint x="65.2399999999999" y="800.72" as="sourcePoint" />
            <mxPoint x="64.92" y="470" as="targetPoint" />
          </mxGeometry>
        </mxCell>
        <mxCell id="FpLYncGG0gf17gEkh9_b-9" value="Student Portal Room Management" style="html=1;whiteSpace=wrap;fontSize=16;" parent="1" vertex="1">
          <mxGeometry x="190" y="160" width="120" height="60" as="geometry" />
        </mxCell>
        <mxCell id="FpLYncGG0gf17gEkh9_b-10" value="" style="endArrow=none;dashed=1;html=1;rounded=0;fontSize=12;startSize=8;endSize=8;curved=1;" parent="1" edge="1">
          <mxGeometry width="50" height="50" relative="1" as="geometry">
            <mxPoint x="249.7" y="290" as="sourcePoint" />
            <mxPoint x="249.7" y="230" as="targetPoint" />
          </mxGeometry>
        </mxCell>
        <mxCell id="FpLYncGG0gf17gEkh9_b-11" value="" style="html=1;points=[];perimeter=orthogonalPerimeter;outlineConnect=0;targetShapes=umlLifeline;portConstraint=eastwest;newEdgeStyle={&quot;edgeStyle&quot;:&quot;elbowEdgeStyle&quot;,&quot;elbow&quot;:&quot;vertical&quot;,&quot;curved&quot;:0,&quot;rounded&quot;:0};fontSize=16;" parent="1" vertex="1">
          <mxGeometry x="245" y="280" width="10" height="220" as="geometry" />
        </mxCell>
        <mxCell id="FpLYncGG0gf17gEkh9_b-12" value="Go to &quot;Student Portal Room&lt;br&gt;Management&quot; page" style="html=1;verticalAlign=bottom;endArrow=block;edgeStyle=elbowEdgeStyle;elbow=vertical;curved=0;rounded=0;fontSize=12;startSize=8;endSize=8;" parent="1" source="FpLYncGG0gf17gEkh9_b-7" target="FpLYncGG0gf17gEkh9_b-11" edge="1">
          <mxGeometry width="80" relative="1" as="geometry">
            <mxPoint x="35" y="340" as="sourcePoint" />
            <mxPoint x="265" y="340" as="targetPoint" />
            <Array as="points">
              <mxPoint x="100" y="310" />
              <mxPoint x="110" y="300" />
              <mxPoint x="130" y="380" />
              <mxPoint x="55" y="320" />
            </Array>
          </mxGeometry>
        </mxCell>
        <mxCell id="FpLYncGG0gf17gEkh9_b-13" value="Payment Information page" style="html=1;whiteSpace=wrap;fontSize=16;" parent="1" vertex="1">
          <mxGeometry x="340" y="160" width="120" height="60" as="geometry" />
        </mxCell>
        <mxCell id="FpLYncGG0gf17gEkh9_b-14" value="" style="endArrow=none;dashed=1;html=1;rounded=0;fontSize=12;startSize=8;endSize=8;curved=1;" parent="1" edge="1">
          <mxGeometry width="50" height="50" relative="1" as="geometry">
            <mxPoint x="400" y="800" as="sourcePoint" />
            <mxPoint x="399.58" y="530" as="targetPoint" />
          </mxGeometry>
        </mxCell>
        <mxCell id="FpLYncGG0gf17gEkh9_b-15" value="" style="endArrow=none;dashed=1;html=1;rounded=0;fontSize=12;startSize=8;endSize=8;curved=1;" parent="1" edge="1">
          <mxGeometry width="50" height="50" relative="1" as="geometry">
            <mxPoint x="399.28999999999996" y="290" as="sourcePoint" />
            <mxPoint x="399.28999999999996" y="230" as="targetPoint" />
          </mxGeometry>
        </mxCell>
        <mxCell id="FpLYncGG0gf17gEkh9_b-16" value="" style="html=1;points=[];perimeter=orthogonalPerimeter;outlineConnect=0;targetShapes=umlLifeline;portConstraint=eastwest;newEdgeStyle={&quot;edgeStyle&quot;:&quot;elbowEdgeStyle&quot;,&quot;elbow&quot;:&quot;vertical&quot;,&quot;curved&quot;:0,&quot;rounded&quot;:0};fontSize=16;" parent="1" vertex="1">
          <mxGeometry x="395" y="280" width="10" height="260" as="geometry" />
        </mxCell>
        <mxCell id="FpLYncGG0gf17gEkh9_b-17" value="Click &quot;Payment&lt;br&gt;Information&quot;" style="html=1;verticalAlign=bottom;endArrow=block;edgeStyle=elbowEdgeStyle;elbow=vertical;curved=0;rounded=0;fontSize=12;startSize=8;endSize=8;" parent="1" source="FpLYncGG0gf17gEkh9_b-11" target="FpLYncGG0gf17gEkh9_b-16" edge="1">
          <mxGeometry width="80" relative="1" as="geometry">
            <mxPoint x="260" y="350" as="sourcePoint" />
            <mxPoint x="310" y="350" as="targetPoint" />
            <Array as="points">
              <mxPoint x="270" y="350" />
              <mxPoint x="280" y="380" />
            </Array>
          </mxGeometry>
        </mxCell>
        <mxCell id="FpLYncGG0gf17gEkh9_b-18" value="Payment Detail&lt;br&gt;page" style="html=1;whiteSpace=wrap;fontSize=16;" parent="1" vertex="1">
          <mxGeometry x="510" y="160" width="120" height="60" as="geometry" />
        </mxCell>
        <mxCell id="FpLYncGG0gf17gEkh9_b-20" value="" style="endArrow=none;dashed=1;html=1;rounded=0;fontSize=12;startSize=8;endSize=8;curved=1;" parent="1" source="FpLYncGG0gf17gEkh9_b-21" edge="1">
          <mxGeometry width="50" height="50" relative="1" as="geometry">
            <mxPoint x="569.29" y="290" as="sourcePoint" />
            <mxPoint x="569.29" y="230" as="targetPoint" />
          </mxGeometry>
        </mxCell>
        <mxCell id="FpLYncGG0gf17gEkh9_b-21" value="" style="html=1;points=[];perimeter=orthogonalPerimeter;outlineConnect=0;targetShapes=umlLifeline;portConstraint=eastwest;newEdgeStyle={&quot;edgeStyle&quot;:&quot;elbowEdgeStyle&quot;,&quot;elbow&quot;:&quot;vertical&quot;,&quot;curved&quot;:0,&quot;rounded&quot;:0};fontSize=16;" parent="1" vertex="1">
          <mxGeometry x="565" y="340" width="10" height="330" as="geometry" />
        </mxCell>
        <mxCell id="FpLYncGG0gf17gEkh9_b-26" value="" style="html=1;points=[];perimeter=orthogonalPerimeter;outlineConnect=0;targetShapes=umlLifeline;portConstraint=eastwest;newEdgeStyle={&quot;edgeStyle&quot;:&quot;elbowEdgeStyle&quot;,&quot;elbow&quot;:&quot;vertical&quot;,&quot;curved&quot;:0,&quot;rounded&quot;:0};fontSize=16;" parent="1" vertex="1">
          <mxGeometry x="400" y="400" width="10" height="40" as="geometry" />
        </mxCell>
        <mxCell id="FpLYncGG0gf17gEkh9_b-27" value="Display list&lt;br&gt;of payment" style="html=1;align=left;spacingLeft=2;endArrow=block;rounded=0;edgeStyle=orthogonalEdgeStyle;curved=0;rounded=0;fontSize=12;startSize=8;endSize=8;" parent="1" target="FpLYncGG0gf17gEkh9_b-26" edge="1">
          <mxGeometry relative="1" as="geometry">
            <mxPoint x="404" y="370.0000000000001" as="sourcePoint" />
            <Array as="points">
              <mxPoint x="438" y="370" />
              <mxPoint x="438" y="410" />
            </Array>
          </mxGeometry>
        </mxCell>
        <mxCell id="FpLYncGG0gf17gEkh9_b-28" value="return" style="html=1;verticalAlign=bottom;endArrow=open;dashed=1;endSize=8;edgeStyle=elbowEdgeStyle;elbow=vertical;curved=0;rounded=0;fontSize=12;" parent="1" source="FpLYncGG0gf17gEkh9_b-16" target="FpLYncGG0gf17gEkh9_b-11" edge="1">
          <mxGeometry relative="1" as="geometry">
            <mxPoint x="390" y="450" as="sourcePoint" />
            <mxPoint x="315" y="430.09000000000003" as="targetPoint" />
            <Array as="points">
              <mxPoint x="360" y="450" />
              <mxPoint x="290" y="480" />
              <mxPoint x="290" y="390" />
            </Array>
          </mxGeometry>
        </mxCell>
        <mxCell id="FpLYncGG0gf17gEkh9_b-29" value="sd UC09" style="shape=umlFrame;whiteSpace=wrap;html=1;pointerEvents=0;fontSize=16;width=70;height=30;" parent="1" vertex="1">
          <mxGeometry x="10" y="100" width="880" height="750" as="geometry" />
        </mxCell>
        <mxCell id="FpLYncGG0gf17gEkh9_b-34" value="Click &quot;Pay Now&quot;&lt;br&gt;&amp;nbsp;button" style="html=1;verticalAlign=bottom;endArrow=block;edgeStyle=elbowEdgeStyle;elbow=vertical;curved=0;rounded=0;fontSize=12;startSize=8;endSize=8;" parent="1" target="FpLYncGG0gf17gEkh9_b-21" edge="1">
          <mxGeometry x="-0.0023" width="80" relative="1" as="geometry">
            <mxPoint x="405" y="470" as="sourcePoint" />
            <mxPoint x="555" y="470.34000000000015" as="targetPoint" />
            <Array as="points">
              <mxPoint x="520" y="470.34000000000003" />
              <mxPoint x="550" y="485.34000000000003" />
            </Array>
            <mxPoint as="offset" />
          </mxGeometry>
        </mxCell>
        <mxCell id="FpLYncGG0gf17gEkh9_b-35" value="Click &quot;Submit&quot;&lt;br&gt;button" style="html=1;verticalAlign=bottom;endArrow=block;edgeStyle=elbowEdgeStyle;elbow=vertical;curved=0;rounded=0;fontSize=12;startSize=8;endSize=8;" parent="1" target="FpLYncGG0gf17gEkh9_b-41" edge="1">
          <mxGeometry x="-0.0023" width="80" relative="1" as="geometry">
            <mxPoint x="575" y="550" as="sourcePoint" />
            <mxPoint x="725" y="690.3400000000001" as="targetPoint" />
            <Array as="points">
              <mxPoint x="610" y="550" />
              <mxPoint x="690" y="690.34" />
              <mxPoint x="720" y="705.34" />
            </Array>
            <mxPoint as="offset" />
          </mxGeometry>
        </mxCell>
        <mxCell id="FpLYncGG0gf17gEkh9_b-40" value="Notification page" style="html=1;whiteSpace=wrap;fontSize=16;" parent="1" vertex="1">
          <mxGeometry x="690" y="160" width="120" height="60" as="geometry" />
        </mxCell>
        <mxCell id="FpLYncGG0gf17gEkh9_b-41" value="" style="html=1;points=[];perimeter=orthogonalPerimeter;outlineConnect=0;targetShapes=umlLifeline;portConstraint=eastwest;newEdgeStyle={&quot;edgeStyle&quot;:&quot;elbowEdgeStyle&quot;,&quot;elbow&quot;:&quot;vertical&quot;,&quot;curved&quot;:0,&quot;rounded&quot;:0};fontSize=16;" parent="1" vertex="1">
          <mxGeometry x="745" y="470" width="10" height="280" as="geometry" />
        </mxCell>
        <mxCell id="FpLYncGG0gf17gEkh9_b-42" value="" style="endArrow=none;dashed=1;html=1;rounded=0;fontSize=12;startSize=8;endSize=8;curved=1;" parent="1" source="FpLYncGG0gf17gEkh9_b-41" edge="1">
          <mxGeometry width="50" height="50" relative="1" as="geometry">
            <mxPoint x="700" y="857.5" as="sourcePoint" />
            <mxPoint x="750" y="227.5" as="targetPoint" />
          </mxGeometry>
        </mxCell>
        <mxCell id="FpLYncGG0gf17gEkh9_b-50" value="return" style="html=1;verticalAlign=bottom;endArrow=open;dashed=1;endSize=8;edgeStyle=elbowEdgeStyle;elbow=vertical;curved=0;rounded=0;fontSize=12;" parent="1" source="FpLYncGG0gf17gEkh9_b-21" edge="1">
          <mxGeometry relative="1" as="geometry">
            <mxPoint x="560" y="510" as="sourcePoint" />
            <mxPoint x="405" y="510" as="targetPoint" />
            <Array as="points">
              <mxPoint x="465" y="510" />
              <mxPoint x="465" y="420" />
            </Array>
          </mxGeometry>
        </mxCell>
        <mxCell id="FpLYncGG0gf17gEkh9_b-51" value="" style="html=1;points=[];perimeter=orthogonalPerimeter;outlineConnect=0;targetShapes=umlLifeline;portConstraint=eastwest;newEdgeStyle={&quot;edgeStyle&quot;:&quot;elbowEdgeStyle&quot;,&quot;elbow&quot;:&quot;vertical&quot;,&quot;curved&quot;:0,&quot;rounded&quot;:0};fontSize=16;" parent="1" vertex="1">
          <mxGeometry x="750" y="590" width="10" height="40" as="geometry" />
        </mxCell>
        <mxCell id="FpLYncGG0gf17gEkh9_b-52" value="display&lt;br&gt;notification" style="html=1;align=left;spacingLeft=2;endArrow=block;rounded=0;edgeStyle=orthogonalEdgeStyle;curved=0;rounded=0;fontSize=12;startSize=8;endSize=8;" parent="1" target="FpLYncGG0gf17gEkh9_b-51" edge="1">
          <mxGeometry relative="1" as="geometry">
            <mxPoint x="755" y="570" as="sourcePoint" />
            <Array as="points">
              <mxPoint x="785" y="600" />
            </Array>
          </mxGeometry>
        </mxCell>
      </root>
    </mxGraphModel>
  </diagram>
</mxfile>
